<?xml version="1.0" standalone="no"?>
<!DOCTYPE svg PUBLIC "-//W3C//DTD SVG 20010904//EN"
 "http://www.w3.org/TR/2001/REC-SVG-20010904/DTD/svg10.dtd">
<svg version="1.0" xmlns="http://www.w3.org/2000/svg"
 width="512.000000pt" height="512.000000pt" viewBox="0 0 512.000000 512.000000"
 preserveAspectRatio="xMidYMid meet">
<metadata>
Created by potrace 1.14, written by Peter Selinger 2001-2017
</metadata>
<g transform="translate(0.000000,512.000000) scale(0.100000,-0.100000)"
fill="#000000" stroke="none">
<path d="M2558 4430 c-3 -8 -11 -42 -18 -75 -26 -131 -135 -369 -270 -591 -85
-140 -259 -394 -270 -394 -4 0 -30 19 -56 43 -195 171 -421 310 -609 375 -114
39 -293 66 -296 45 -10 -88 -18 -719 -10 -800 4 -35 5 -63 3 -63 -2 0 -54 31
-116 69 -133 82 -176 106 -324 183 l-112 59 -11 -28 c-6 -15 -20 -68 -32 -118
-18 -75 -21 -121 -22 -285 0 -180 2 -203 27 -303 63 -248 173 -441 362 -634
l70 -73 -32 -62 c-17 -35 -38 -85 -46 -111 -17 -56 -17 -200 0 -217 7 -7 30
-6 80 4 251 53 593 68 769 35 158 -30 192 -44 205 -85 31 -93 125 -170 351
-286 211 -109 290 -170 331 -258 13 -27 25 -49 28 -50 4 0 11 15 18 33 31 85
126 163 328 267 76 40 164 88 194 108 74 48 145 124 166 178 16 41 20 45 78
63 33 10 95 24 136 32 84 14 352 18 477 6 77 -7 284 -39 338 -53 20 -5 27 -1
35 21 14 37 12 131 -4 192 -16 59 -61 159 -76 168 -6 4 26 45 72 94 105 111
155 176 216 282 122 212 170 397 170 649 0 162 -21 307 -59 407 l-9 23 -79
-40 c-97 -48 -322 -177 -412 -235 l-67 -43 6 36 c11 75 6 757 -6 820 -5 24 -7
24 -77 19 -214 -18 -468 -137 -730 -343 -44 -35 -95 -77 -114 -93 -18 -17 -37
-31 -41 -31 -10 0 -182 250 -265 385 -142 232 -262 500 -283 636 -5 30 -11 47
-14 39z"/>
</g>
</svg>
